<svg xml:space="preserve" style="enable-background:new 0 0 256 250.053;" viewBox="0 0 256 250.053" height="250.053px" width="256px" y="0px" x="0px" xmlns:xlink="http://www.w3.org/1999/xlink" xmlns="http://www.w3.org/2000/svg" id="Layer_1" version="1.1">
<g id="Layer_4_1_">
	<path d="M256,126.358c0-38.613-31.379-69.915-70.084-69.915c-0.602,0-1.197,0.028-1.795,0.044
		c-12.223-20.485-34.627-34.22-60.259-34.22c-38.708,0-70.084,31.304-70.084,69.919c0,0.502,0.027,0.995,0.038,1.496
		c-21.17,12.029-35.455,34.731-35.455,60.775c0,38.613,31.378,69.914,70.086,69.914c2.201,0,4.375-0.116,6.525-0.312
		c12.856,15.535,32.306,25.438,54.077,25.438c35.777,0,65.268-26.747,69.533-61.285C240.83,176.499,256,153.202,256,126.358z" style="fill:#D6F0FF;"></path>
</g>
<g style="opacity:0.48;" id="Layer_2_2_">
	<path d="M243.274,95.065c-1.912,0-3.737-1.103-4.568-2.962c-9.028-20.211-25.065-36.498-45.157-45.858
		c-15.078-7.025-31.74-9.843-48.19-8.155c-2.734,0.286-5.202-1.715-5.484-4.462s1.716-5.203,4.463-5.485
		c18.239-1.875,36.721,1.25,53.435,9.038c22.274,10.378,40.055,28.435,50.065,50.844c1.126,2.521-0.005,5.478-2.526,6.604
		C244.648,94.925,243.956,95.065,243.274,95.065z" style="fill:#F59FB3;"></path>
	<path d="M244.602,130.685c-2.656,0-4.868-2.091-4.991-4.771c-1.451-31.738-20.227-59.781-48.999-73.186
		c-33.116-15.429-72.273-8.021-97.432,18.437c-1.902,2-5.066,2.082-7.069,0.177c-2.001-1.903-2.081-5.067-0.177-7.069
		c28.121-29.57,71.885-37.854,108.901-20.609c32.159,14.982,53.145,46.324,54.767,81.793c0.126,2.759-2.008,5.097-4.767,5.224
		C244.756,130.683,244.679,130.685,244.602,130.685z" style="fill:#FFFF75;"></path>
	<path d="M236.306,144.101c-0.192,0-0.387-0.011-0.583-0.033c-2.743-0.319-4.708-2.801-4.39-5.544
		c3.853-33.151-13.901-64.903-44.177-79.009c-22.56-10.511-48.991-9.477-70.705,2.766c-2.404,1.355-5.455,0.506-6.811-1.9
		c-1.356-2.405-0.506-5.455,1.9-6.811c24.516-13.823,54.363-14.989,79.838-3.12c34.189,15.93,54.237,51.788,49.888,89.228
		C240.971,142.225,238.81,144.101,236.306,144.101z" style="fill:#AFEB75;"></path>
	<path d="M224.104,107.438c-1.999,0-3.887-1.208-4.658-3.182c-6.552-16.766-19.149-30.189-35.475-37.796
		c-31.176-14.526-68.873-3.817-87.683,24.906c-1.513,2.309-4.612,2.957-6.922,1.444c-2.31-1.513-2.957-4.612-1.444-6.922
		c10.391-15.867,26.198-27.522,44.509-32.818c18.492-5.347,38.295-3.812,55.764,4.326c18.667,8.698,33.073,24.048,40.565,43.221
		c1.005,2.572-0.266,5.472-2.838,6.477C225.325,107.328,224.71,107.438,224.104,107.438z" style="fill:#75D5EB;"></path>
</g>
<g id="Layer_2_1_">
	<rect height="131.768" width="103.191" style="fill:#FFFFFF;" y="82.677" x="28.344"></rect>
	<g style="opacity:0.33;">
		<g>
			<rect height="134.202" width="137.928" style="fill:#FFFFFF;" y="82.677" x="28.344"></rect>
			<path d="M166.271,218.379H28.344c-0.829,0-1.5-0.672-1.5-1.5V82.677c0-0.829,0.671-1.5,1.5-1.5h137.928
				c0.828,0,1.5,0.671,1.5,1.5v134.202C167.771,217.707,167.1,218.379,166.271,218.379z M29.844,215.379h134.928V84.177H29.844
				V215.379z" style="fill:#6E6E96;"></path>
		</g>
		<g>
			<rect height="23.063" width="14.855" style="fill:#BDDFFF;" y="128.76" x="120.527"></rect>
			<path d="M135.382,153.323h-14.855c-0.829,0-1.5-0.672-1.5-1.5V128.76c0-0.828,0.671-1.5,1.5-1.5h14.855
				c0.828,0,1.5,0.672,1.5,1.5v23.063C136.882,152.651,136.21,153.323,135.382,153.323z M122.027,150.323h11.855V130.26h-11.855
				V150.323z" style="fill:#6E6E96;"></path>
		</g>
		<g>
			<rect height="22.922" width="14.855" style="fill:#BDDFFF;" y="157.412" x="120.527"></rect>
			<path d="M135.382,181.834h-14.855c-0.829,0-1.5-0.672-1.5-1.5v-22.922c0-0.828,0.671-1.5,1.5-1.5h14.855
				c0.828,0,1.5,0.672,1.5,1.5v22.922C136.882,181.162,136.21,181.834,135.382,181.834z M122.027,178.834h11.855v-19.922h-11.855
				V178.834z" style="fill:#6E6E96;"></path>
		</g>
		<g>
			<rect height="23.413" width="14.858" style="fill:#BDDFFF;" y="99.753" x="99.594"></rect>
			<path d="M114.452,124.666H99.594c-0.829,0-1.5-0.671-1.5-1.5V99.753c0-0.829,0.671-1.5,1.5-1.5h14.858
				c0.829,0,1.5,0.671,1.5,1.5v23.413C115.952,123.995,115.281,124.666,114.452,124.666z M101.094,121.666h11.858v-20.413h-11.858
				V121.666z" style="fill:#6E6E96;"></path>
		</g>
		<g>
			<rect height="23.063" width="14.858" style="fill:#BDDFFF;" y="128.76" x="99.594"></rect>
			<path d="M114.452,153.323H99.594c-0.829,0-1.5-0.672-1.5-1.5V128.76c0-0.828,0.671-1.5,1.5-1.5h14.858
				c0.829,0,1.5,0.672,1.5,1.5v23.063C115.952,152.651,115.281,153.323,114.452,153.323z M101.094,150.323h11.858V130.26h-11.858
				V150.323z" style="fill:#6E6E96;"></path>
		</g>
		<g>
			<rect height="23.063" width="17.479" style="fill:#BDDFFF;" y="128.76" x="141.463"></rect>
			<path d="M158.941,153.323h-17.479c-0.828,0-1.5-0.672-1.5-1.5V128.76c0-0.828,0.672-1.5,1.5-1.5h17.479
				c0.828,0,1.5,0.672,1.5,1.5v23.063C160.441,152.651,159.77,153.323,158.941,153.323z M142.963,150.323h14.479V130.26h-14.479
				V150.323z" style="fill:#6E6E96;"></path>
		</g>
		<g>
			<rect height="23.413" width="14.855" style="fill:#BDDFFF;" y="99.753" x="120.527"></rect>
			<path d="M135.382,124.666h-14.855c-0.829,0-1.5-0.671-1.5-1.5V99.753c0-0.829,0.671-1.5,1.5-1.5h14.855
				c0.828,0,1.5,0.671,1.5,1.5v23.413C136.882,123.995,136.21,124.666,135.382,124.666z M122.027,121.666h11.855v-20.413h-11.855
				V121.666z" style="fill:#6E6E96;"></path>
		</g>
		<g>
			<rect height="22.922" width="14.858" style="fill:#BDDFFF;" y="157.412" x="99.594"></rect>
			<path d="M114.452,181.834H99.594c-0.829,0-1.5-0.672-1.5-1.5v-22.922c0-0.828,0.671-1.5,1.5-1.5h14.858
				c0.829,0,1.5,0.672,1.5,1.5v22.922C115.952,181.162,115.281,181.834,114.452,181.834z M101.094,178.834h11.858v-19.922h-11.858
				V178.834z" style="fill:#6E6E96;"></path>
		</g>
		<g>
			<rect height="23.413" width="17.479" style="fill:#BDDFFF;" y="99.753" x="141.463"></rect>
			<path d="M158.941,124.666h-17.479c-0.828,0-1.5-0.671-1.5-1.5V99.753c0-0.829,0.672-1.5,1.5-1.5h17.479
				c0.828,0,1.5,0.671,1.5,1.5v23.413C160.441,123.995,159.77,124.666,158.941,124.666z M142.963,121.666h14.479v-20.413h-14.479
				V121.666z" style="fill:#6E6E96;"></path>
		</g>
		<g>
			<rect height="22.922" width="17.479" style="fill:#BDDFFF;" y="157.412" x="141.463"></rect>
			<path d="M158.941,181.834h-17.479c-0.828,0-1.5-0.672-1.5-1.5v-22.922c0-0.828,0.672-1.5,1.5-1.5h17.479
				c0.828,0,1.5,0.672,1.5,1.5v22.922C160.441,181.162,159.77,181.834,158.941,181.834z M142.963,178.834h14.479v-19.922h-14.479
				V178.834z" style="fill:#6E6E96;"></path>
		</g>
		<g>
			<rect height="23.063" width="16.074" style="fill:#BDDFFF;" y="128.76" x="35.577"></rect>
			<path d="M51.651,153.323H35.577c-0.829,0-1.5-0.672-1.5-1.5V128.76c0-0.828,0.671-1.5,1.5-1.5h16.074
				c0.829,0,1.5,0.672,1.5,1.5v23.063C53.151,152.651,52.479,153.323,51.651,153.323z M37.077,150.323h13.074V130.26H37.077V150.323
				z" style="fill:#6E6E96;"></path>
		</g>
		<g>
			<rect height="23.413" width="16.074" style="fill:#BDDFFF;" y="99.753" x="35.577"></rect>
			<path d="M51.651,124.666H35.577c-0.829,0-1.5-0.671-1.5-1.5V99.753c0-0.829,0.671-1.5,1.5-1.5h16.074
				c0.829,0,1.5,0.671,1.5,1.5v23.413C53.151,123.995,52.479,124.666,51.651,124.666z M37.077,121.666h13.074v-20.413H37.077
				V121.666z" style="fill:#6E6E96;"></path>
		</g>
		<g>
			<rect height="22.922" width="16.074" style="fill:#BDDFFF;" y="157.412" x="35.577"></rect>
			<path d="M51.651,181.834H35.577c-0.829,0-1.5-0.672-1.5-1.5v-22.922c0-0.828,0.671-1.5,1.5-1.5h16.074
				c0.829,0,1.5,0.672,1.5,1.5v22.922C53.151,181.162,52.479,181.834,51.651,181.834z M37.077,178.834h13.074v-19.922H37.077
				V178.834z" style="fill:#6E6E96;"></path>
		</g>
		<g>
			<rect height="22.922" width="14.854" style="fill:#BDDFFF;" y="157.412" x="57.729"></rect>
			<path d="M72.583,181.834H57.729c-0.829,0-1.5-0.672-1.5-1.5v-22.922c0-0.828,0.671-1.5,1.5-1.5h14.854
				c0.829,0,1.5,0.672,1.5,1.5v22.922C74.083,181.162,73.412,181.834,72.583,181.834z M59.229,178.834h11.854v-19.922H59.229
				V178.834z" style="fill:#6E6E96;"></path>
		</g>
		<g>
			<rect height="23.063" width="14.854" style="fill:#BDDFFF;" y="128.76" x="57.729"></rect>
			<path d="M72.583,153.323H57.729c-0.829,0-1.5-0.672-1.5-1.5V128.76c0-0.828,0.671-1.5,1.5-1.5h14.854
				c0.829,0,1.5,0.672,1.5,1.5v23.063C74.083,152.651,73.412,153.323,72.583,153.323z M59.229,150.323h11.854V130.26H59.229V150.323
				z" style="fill:#6E6E96;"></path>
		</g>
		<g>
			<rect height="22.922" width="14.857" style="fill:#BDDFFF;" y="157.412" x="78.662"></rect>
			<path d="M93.519,181.834H78.662c-0.829,0-1.5-0.672-1.5-1.5v-22.922c0-0.828,0.671-1.5,1.5-1.5h14.857
				c0.829,0,1.5,0.672,1.5,1.5v22.922C95.019,181.162,94.348,181.834,93.519,181.834z M80.162,178.834h11.857v-19.922H80.162
				V178.834z" style="fill:#6E6E96;"></path>
		</g>
		<g>
			<rect height="23.413" width="14.857" style="fill:#BDDFFF;" y="99.753" x="78.662"></rect>
			<path d="M93.519,124.666H78.662c-0.829,0-1.5-0.671-1.5-1.5V99.753c0-0.829,0.671-1.5,1.5-1.5h14.857
				c0.829,0,1.5,0.671,1.5,1.5v23.413C95.019,123.995,94.348,124.666,93.519,124.666z M80.162,121.666h11.857v-20.413H80.162
				V121.666z" style="fill:#6E6E96;"></path>
		</g>
		<g>
			<rect height="23.063" width="14.857" style="fill:#BDDFFF;" y="128.76" x="78.662"></rect>
			<path d="M93.519,153.323H78.662c-0.829,0-1.5-0.672-1.5-1.5V128.76c0-0.828,0.671-1.5,1.5-1.5h14.857
				c0.829,0,1.5,0.672,1.5,1.5v23.063C95.019,152.651,94.348,153.323,93.519,153.323z M80.162,150.323h11.857V130.26H80.162V150.323
				z" style="fill:#6E6E96;"></path>
		</g>
		<g>
			<rect height="23.413" width="14.854" style="fill:#BDDFFF;" y="99.753" x="57.729"></rect>
			<path d="M72.583,124.666H57.729c-0.829,0-1.5-0.671-1.5-1.5V99.753c0-0.829,0.671-1.5,1.5-1.5h14.854
				c0.829,0,1.5,0.671,1.5,1.5v23.413C74.083,123.995,73.412,124.666,72.583,124.666z M59.229,121.666h11.854v-20.413H59.229
				V121.666z" style="fill:#6E6E96;"></path>
		</g>
		<g>
			<rect height="6.711" width="145.371" style="fill:#D5B697;" y="82.677" x="24.627"></rect>
			<path d="M169.998,90.888H24.627c-0.829,0-1.5-0.671-1.5-1.5v-6.711c0-0.829,0.671-1.5,1.5-1.5h145.371
				c0.828,0,1.5,0.671,1.5,1.5v6.711C171.498,90.216,170.826,90.888,169.998,90.888z M26.127,87.888h142.371v-3.711H26.127V87.888z" style="fill:#6E6E96;"></path>
		</g>
		<g>
			<rect height="22.924" width="14.855" style="fill:#BDDFFF;" y="186.302" x="120.527"></rect>
			<path d="M135.382,210.726h-14.855c-0.829,0-1.5-0.672-1.5-1.5v-22.924c0-0.828,0.671-1.5,1.5-1.5h14.855
				c0.828,0,1.5,0.672,1.5,1.5v22.924C136.882,210.054,136.21,210.726,135.382,210.726z M122.027,207.726h11.855v-19.924h-11.855
				V207.726z" style="fill:#6E6E96;"></path>
		</g>
		<g>
			<rect height="22.924" width="17.479" style="fill:#BDDFFF;" y="186.302" x="141.463"></rect>
			<path d="M158.941,210.726h-17.479c-0.828,0-1.5-0.672-1.5-1.5v-22.924c0-0.828,0.672-1.5,1.5-1.5h17.479
				c0.828,0,1.5,0.672,1.5,1.5v22.924C160.441,210.054,159.77,210.726,158.941,210.726z M142.963,207.726h14.479v-19.924h-14.479
				V207.726z" style="fill:#6E6E96;"></path>
		</g>
		<g>
			<rect height="22.924" width="16.074" style="fill:#BDDFFF;" y="186.302" x="35.577"></rect>
			<path d="M51.651,210.726H35.577c-0.829,0-1.5-0.672-1.5-1.5v-22.924c0-0.828,0.671-1.5,1.5-1.5h16.074
				c0.829,0,1.5,0.672,1.5,1.5v22.924C53.151,210.054,52.479,210.726,51.651,210.726z M37.077,207.726h13.074v-19.924H37.077
				V207.726z" style="fill:#6E6E96;"></path>
		</g>
		<g>
			<rect height="22.924" width="14.854" style="fill:#BDDFFF;" y="186.302" x="57.729"></rect>
			<path d="M72.583,210.726H57.729c-0.829,0-1.5-0.672-1.5-1.5v-22.924c0-0.828,0.671-1.5,1.5-1.5h14.854
				c0.829,0,1.5,0.672,1.5,1.5v22.924C74.083,210.054,73.412,210.726,72.583,210.726z M59.229,207.726h11.854v-19.924H59.229
				V207.726z" style="fill:#6E6E96;"></path>
		</g>
		<g>
			<rect height="30.576" width="35.848" style="fill:#E4BC96;" y="186.302" x="78.662"></rect>
			<path d="M114.51,218.378H78.662c-0.829,0-1.5-0.672-1.5-1.5v-30.576c0-0.828,0.671-1.5,1.5-1.5h35.848
				c0.829,0,1.5,0.672,1.5,1.5v30.576C116.01,217.706,115.338,218.378,114.51,218.378z M80.162,215.378h32.848v-27.576H80.162
				V215.378z" style="fill:#6E6E96;"></path>
		</g>
		<path d="M96.38,218.379c-0.829,0-1.5-0.672-1.5-1.5v-30.577c0-0.828,0.671-1.5,1.5-1.5s1.5,0.672,1.5,1.5
			v30.577C97.88,217.707,97.208,218.379,96.38,218.379z" style="fill:#6E6E96;"></path>
	</g>
	<path d="M88.328,66.607H68.286c-1.381,0-2.5-1.119-2.5-2.5s1.119-2.5,2.5-2.5h20.042
		c1.381,0,2.5,1.119,2.5,2.5S89.709,66.607,88.328,66.607z" style="fill:#FFFFFF;"></path>
</g>
<g id="Layer_3_1_">
	<g>
		<rect height="9.577" width="63.681" style="fill:#EBEBF7;" y="21.293" x="124.264"></rect>
		<path d="M187.945,32.37h-63.681c-0.829,0-1.5-0.671-1.5-1.5v-9.577c0-0.829,0.671-1.5,1.5-1.5h63.681
			c0.828,0,1.5,0.671,1.5,1.5v9.577C189.445,31.699,188.773,32.37,187.945,32.37z M125.764,29.37h60.681v-6.577h-60.681V29.37z" style="fill:#CCCCDE;"></path>
	</g>
	<g>
		<rect height="169.638" width="100.177" style="fill:#FFFFFF;" y="30.704" x="105.856"></rect>
		<path d="M206.033,201.842H105.856c-0.829,0-1.5-0.672-1.5-1.5V30.704c0-0.829,0.671-1.5,1.5-1.5h100.177
			c0.828,0,1.5,0.671,1.5,1.5v169.638C207.533,201.17,206.861,201.842,206.033,201.842z M107.356,198.842h97.177V32.204h-97.177
			V198.842z" style="fill:#CCCCDE;"></path>
	</g>
	<g>
		<rect height="161.16" width="83.523" style="fill:#CFE7FF;" y="39.181" x="114.465"></rect>
		<path d="M197.988,201.841h-83.523c-0.829,0-1.5-0.672-1.5-1.5V39.181c0-0.829,0.671-1.5,1.5-1.5h83.523
			c0.828,0,1.5,0.671,1.5,1.5v161.16C199.488,201.169,198.816,201.841,197.988,201.841z M115.965,198.841h80.523V40.681h-80.523
			V198.841z" style="fill:#CCCCDE;"></path>
	</g>
	<polygon points="115.53,122.967 193.936,40.19 137.066,40.357 
		115.53,63.772" style="opacity:0.49;fill:#FFFFFF;enable-background:new    ;"></polygon>
	<polygon points="197.293,62.439 114.919,149.404 137.541,150.097 
		197.293,87.011" style="opacity:0.27;fill:#FFFFFF;enable-background:new    ;"></polygon>
	<g>
		<rect height="50.879" width="83.523" style="fill:#CFE7FF;" y="149.463" x="114.465"></rect>
		<path d="M197.988,201.842h-83.523c-0.829,0-1.5-0.672-1.5-1.5v-50.879c0-0.828,0.671-1.5,1.5-1.5h83.523
			c0.828,0,1.5,0.672,1.5,1.5v50.879C199.488,201.17,198.816,201.842,197.988,201.842z M115.965,198.842h80.523v-47.879h-80.523
			V198.842z" style="fill:#CCCCDE;"></path>
	</g>
	<g style="opacity:0.37;">
		<polygon points="136.398,161.942 115.699,183.163 115.699,196.121 
			136.398,174.901" style="opacity:0.49;fill:#FFFFFF;enable-background:new    ;"></polygon>
		<polyline points="115.58,173.335 126.692,161.942 115.58,161.942" style="opacity:0.49;fill:#FFFFFF;enable-background:new    ;"></polyline>
	</g>
	<g style="opacity:0.37;">
		<polygon points="166.252,161.942 146.152,183.163 146.152,196.121 
			166.252,174.901" style="opacity:0.49;fill:#FFFFFF;enable-background:new    ;"></polygon>
		<polyline points="146.836,173.335 157.627,161.942 
			146.836,161.942" style="opacity:0.49;fill:#FFFFFF;enable-background:new    ;"></polyline>
	</g>
	<g style="opacity:0.37;">
		<polygon points="196.857,161.942 174.525,183.163 174.525,196.121 
			196.857,174.901" style="opacity:0.49;fill:#FFFFFF;enable-background:new    ;"></polygon>
		<polyline points="175.283,173.335 187.275,161.942 
			175.283,161.942" style="opacity:0.49;fill:#FFFFFF;enable-background:new    ;"></polyline>
	</g>
	<rect height="110.282" width="3" style="fill:#CCCCDE;" y="39.181" x="123.609"></rect>
	<rect height="110.282" width="3" style="fill:#CCCCDE;" y="39.181" x="134.266"></rect>
	<rect height="110.282" width="3" style="fill:#CCCCDE;" y="39.181" x="144.658"></rect>
	<rect height="110.282" width="3" style="fill:#CCCCDE;" y="39.181" x="155.58"></rect>
	<rect height="110.282" width="3" style="fill:#CCCCDE;" y="39.181" x="165.973"></rect>
	<rect height="110.282" width="3" style="fill:#CCCCDE;" y="39.181" x="176.098"></rect>
	<rect height="110.282" width="3" style="fill:#CCCCDE;" y="39.181" x="186.221"></rect>
	<path d="M197.988,63.935h-83.523c-0.829,0-1.5-0.671-1.5-1.5s0.671-1.5,1.5-1.5h83.523
		c0.828,0,1.5,0.671,1.5,1.5S198.816,63.935,197.988,63.935z" style="fill:#CCCCDE;"></path>
	<path d="M197.988,86.437h-83.523c-0.829,0-1.5-0.671-1.5-1.5s0.671-1.5,1.5-1.5h83.523
		c0.828,0,1.5,0.671,1.5,1.5S198.816,86.437,197.988,86.437z" style="fill:#CCCCDE;"></path>
	<path d="M197.988,107.817h-83.523c-0.829,0-1.5-0.671-1.5-1.5s0.671-1.5,1.5-1.5h83.523
		c0.828,0,1.5,0.671,1.5,1.5S198.816,107.817,197.988,107.817z" style="fill:#CCCCDE;"></path>
	<rect height="3" width="83.523" style="fill:#CCCCDE;" y="126.194" x="114.465"></rect>
	<g>
		<rect height="42.69" width="8.521" style="fill:#F0F0FF;" y="157.649" x="137.631"></rect>
		<path d="M146.152,201.84h-8.521c-0.828,0-1.5-0.672-1.5-1.5v-42.69c0-0.828,0.672-1.5,1.5-1.5h8.521
			c0.828,0,1.5,0.672,1.5,1.5v42.69C147.652,201.168,146.98,201.84,146.152,201.84z M139.131,198.84h5.521v-39.69h-5.521V198.84z" style="fill:#CCCCDE;"></path>
	</g>
	<g>
		<rect height="44.64" width="7.994" style="fill:#F0F0FF;" y="155.703" x="166.006"></rect>
		<path d="M174,201.843h-7.994c-0.828,0-1.5-0.672-1.5-1.5v-44.64c0-0.828,0.672-1.5,1.5-1.5H174
			c0.828,0,1.5,0.672,1.5,1.5v44.64C175.5,201.171,174.828,201.843,174,201.843z M167.506,198.843h4.994v-41.64h-4.994V198.843z" style="fill:#CCCCDE;"></path>
	</g>
	<g>
		<rect height="12.479" width="83.523" style="fill:#F0F0FF;" y="149.463" x="114.465"></rect>
		<path d="M197.988,163.442h-83.523c-0.829,0-1.5-0.672-1.5-1.5v-12.479c0-0.828,0.671-1.5,1.5-1.5h83.523
			c0.828,0,1.5,0.672,1.5,1.5v12.479C199.488,162.771,198.816,163.442,197.988,163.442z M115.965,160.442h80.523v-9.479h-80.523
			V160.442z" style="fill:#CCCCDE;"></path>
	</g>
	<g>
		<rect height="7.521" width="27.975" style="fill:#EBEBF7;" y="13.772" x="142.115"></rect>
		<path d="M170.09,22.793h-27.975c-0.828,0-1.5-0.671-1.5-1.5v-7.521c0-0.829,0.672-1.5,1.5-1.5h27.975
			c0.828,0,1.5,0.671,1.5,1.5v7.521C171.59,22.122,170.918,22.793,170.09,22.793z M143.615,19.793h24.975v-4.521h-24.975V19.793z" style="fill:#CCCCDE;"></path>
	</g>
	<path d="M156.104,15.272c-0.828,0-1.5-0.671-1.5-1.5V1.5c0-0.829,0.672-1.5,1.5-1.5s1.5,0.671,1.5,1.5
		v12.272C157.604,14.601,156.932,15.272,156.104,15.272z" style="fill:#CCCCDE;"></path>
	<g>
		<rect height="8.72" width="108.846" style="fill:#F0F0FF;" y="196.049" x="102.32"></rect>
		<path d="M211.166,206.269H102.32c-0.829,0-1.5-0.672-1.5-1.5v-8.72c0-0.828,0.671-1.5,1.5-1.5h108.846
			c0.828,0,1.5,0.672,1.5,1.5v8.72C212.666,205.597,211.994,206.269,211.166,206.269z M103.82,203.269h105.846v-5.72H103.82V203.269
			z" style="fill:#CCCCDE;"></path>
	</g>
</g>
<g id="Layer_6_1_">
	<g>
		<polygon points="246.594,216.531 162.051,216.531 162.051,144.271 204.324,117.211 246.594,144.271" style="fill:#FFFFFF;"></polygon>
		<path d="M248.094,218.031h-87.543v-74.582l43.773-28.02l43.77,28.021V218.031z M163.551,215.031h81.543
			v-69.94l-40.77-26.099l-40.773,26.1V215.031z" style="fill:#CCCCDE;"></path>
	</g>
	<g>
		<polygon points="204.324,112.623 154.623,142.839 154.623,147.808 162.051,147.808 204.324,121.711 
			246.48,148.151 252.998,148.253 252.998,142.839" style="fill:#E0E6FC;"></polygon>
		<path d="M252.998,149.753c-0.008,0-0.016,0-0.023,0l-6.518-0.102c-0.273-0.005-0.541-0.084-0.773-0.229
			l-41.365-25.944l-41.479,25.606c-0.237,0.146-0.51,0.224-0.788,0.224h-7.428c-0.828,0-1.5-0.672-1.5-1.5v-4.969
			c0-0.523,0.273-1.01,0.721-1.281l49.701-30.216c0.482-0.294,1.09-0.292,1.57,0.007l48.674,30.216
			c0.44,0.273,0.709,0.756,0.709,1.274v5.414c0,0.402-0.161,0.787-0.447,1.069C253.77,149.599,253.392,149.753,252.998,149.753z
			 M246.923,146.658l4.575,0.071v-3.057l-47.182-29.29l-48.193,29.299v2.625h5.502l41.911-25.873c0.485-0.3,1.102-0.299,1.585,0.006
			L246.923,146.658z" style="fill:#CCCCDE;"></path>
	</g>
	<g>
		<rect height="18.938" width="28.699" style="fill:#D4EAFF;" y="180.342" x="170.033"></rect>
		<path d="M198.732,200.78h-28.699c-0.828,0-1.5-0.672-1.5-1.5v-18.938c0-0.828,0.672-1.5,1.5-1.5h28.699
			c0.828,0,1.5,0.672,1.5,1.5v18.938C200.232,200.108,199.561,200.78,198.732,200.78z M171.533,197.78h25.699v-15.938h-25.699
			V197.78z" style="fill:#CCCCDE;"></path>
	</g>
	<g>
		<rect height="11.511" width="84.543" style="fill:#FCEBE3;" y="205.021" x="162.051"></rect>
		<path d="M246.594,218.031h-84.543c-0.828,0-1.5-0.672-1.5-1.5v-11.511c0-0.828,0.672-1.5,1.5-1.5h84.543
			c0.828,0,1.5,0.672,1.5,1.5v11.511C248.094,217.359,247.422,218.031,246.594,218.031z M163.551,215.031h81.543v-8.511h-81.543
			V215.031z" style="fill:#CCCCDE;"></path>
	</g>
	<g>
		<path d="M199.93,216.531c0-0.021,0.004-0.042,0.004-0.065c0-3.562-2.49-6.451-5.562-6.451
			c-1.422,0-2.719,0.625-3.699,1.643c-0.768-4.235-4.002-7.417-7.883-7.417c-1.768,0-3.396,0.667-4.723,1.784
			c-1.67-2.66-4.365-4.399-7.422-4.399c-4.189,0-7.721,3.265-8.818,7.717c-0.41-0.104-0.84-0.167-1.277-0.167
			c-3.271,0-5.924,3.076-5.924,6.875c0,0.162,0.01,0.322,0.021,0.483L199.93,216.531L199.93,216.531z" style="fill:#CCE8D6;"></path>
		<path d="M154.646,218.033c-0.786,0-1.439-0.607-1.496-1.392c-0.015-0.197-0.025-0.394-0.025-0.592
			c0-4.698,3.431-8.521,7.639-8.371c1.619-4.509,5.525-7.554,9.881-7.554c2.949,0,5.761,1.404,7.767,3.821
			c1.347-0.793,2.836-1.206,4.378-1.206c3.822,0,7.229,2.607,8.736,6.448c0.888-0.441,1.854-0.674,2.846-0.674
			c3.895,0,7.062,3.566,7.062,7.951c0,0.035-0.003,0.092-0.006,0.137c-0.037,0.795-0.693,1.429-1.498,1.429L154.646,218.033z
			 M160.549,210.675c-2.153,0-3.952,1.879-4.345,4.358l42.056-0.002c-0.506-2.033-2.058-3.517-3.889-3.517
			c-0.954,0-1.884,0.42-2.619,1.184c-0.391,0.406-0.974,0.557-1.515,0.395c-0.539-0.163-0.941-0.614-1.041-1.168
			c-0.649-3.584-3.345-6.185-6.407-6.185c-1.346,0-2.645,0.495-3.756,1.432c-0.332,0.28-0.771,0.4-1.198,0.335
			c-0.43-0.067-0.809-0.317-1.039-0.685c-1.475-2.35-3.717-3.697-6.151-3.697c-3.38,0-6.407,2.704-7.362,6.576
			c-0.096,0.388-0.342,0.722-0.686,0.928c-0.342,0.205-0.753,0.265-1.141,0.166C161.142,210.716,160.837,210.675,160.549,210.675z" style="fill:#CCCCDE;"></path>
	</g>
	<g>
		<rect height="36.189" width="22.051" style="fill:#FFDEDE;" y="180.342" x="211.518"></rect>
		<path d="M233.568,218.031h-22.051c-0.828,0-1.5-0.672-1.5-1.5v-36.189c0-0.828,0.672-1.5,1.5-1.5h22.051
			c0.828,0,1.5,0.672,1.5,1.5v36.189C235.068,217.359,234.396,218.031,233.568,218.031z M213.018,215.031h19.051v-33.189h-19.051
			V215.031z" style="fill:#CCCCDE;"></path>
	</g>
	<path d="M246.594,175.101h-84.543c-0.828,0-1.5-0.672-1.5-1.5s0.672-1.5,1.5-1.5h84.543
		c0.828,0,1.5,0.672,1.5,1.5S247.422,175.101,246.594,175.101z" style="fill:#CCCCDE;"></path>
	<g>
		<g>
			<rect height="17.586" width="15.441" style="fill:#D4EAFF;" y="149.106" x="170.033"></rect>
			<path d="M185.475,168.192h-15.441c-0.828,0-1.5-0.672-1.5-1.5v-17.586c0-0.828,0.672-1.5,1.5-1.5h15.441
				c0.828,0,1.5,0.672,1.5,1.5v17.586C186.975,167.521,186.303,168.192,185.475,168.192z M171.533,165.192h12.441v-14.586h-12.441
				V165.192z" style="fill:#CCCCDE;"></path>
		</g>
		<path d="M185.475,159.397h-15.441c-0.828,0-1.5-0.672-1.5-1.5s0.672-1.5,1.5-1.5h15.441
			c0.828,0,1.5,0.672,1.5,1.5S186.303,159.397,185.475,159.397z" style="fill:#CCCCDE;"></path>
	</g>
	<g>
		<g>
			<rect height="17.586" width="15.443" style="fill:#D4EAFF;" y="149.106" x="222.855"></rect>
			<path d="M238.299,168.192h-15.443c-0.828,0-1.5-0.672-1.5-1.5v-17.586c0-0.828,0.672-1.5,1.5-1.5h15.443
				c0.828,0,1.5,0.672,1.5,1.5v17.586C239.799,167.521,239.127,168.192,238.299,168.192z M224.355,165.192h12.443v-14.586h-12.443
				V165.192z" style="fill:#CCCCDE;"></path>
		</g>
		<path d="M238.301,159.397h-15.445c-0.828,0-1.5-0.672-1.5-1.5s0.672-1.5,1.5-1.5h15.445
			c0.828,0,1.5,0.672,1.5,1.5S239.129,159.397,238.301,159.397z" style="fill:#CCCCDE;"></path>
	</g>
	<g>
		<g>
			<rect height="17.586" width="15.441" style="fill:#D4EAFF;" y="149.106" x="196.521"></rect>
			<path d="M211.963,168.192h-15.441c-0.828,0-1.5-0.672-1.5-1.5v-17.586c0-0.828,0.672-1.5,1.5-1.5h15.441
				c0.828,0,1.5,0.672,1.5,1.5v17.586C213.463,167.521,212.791,168.192,211.963,168.192z M198.021,165.192h12.441v-14.586h-12.441
				V165.192z" style="fill:#CCCCDE;"></path>
		</g>
		<path d="M211.965,159.397h-15.443c-0.828,0-1.5-0.672-1.5-1.5s0.672-1.5,1.5-1.5h15.443
			c0.828,0,1.5,0.672,1.5,1.5S212.793,159.397,211.965,159.397z" style="fill:#CCCCDE;"></path>
	</g>
	<path d="M184.416,200.779c-0.828,0-1.5-0.672-1.5-1.5v-18.938c0-0.828,0.672-1.5,1.5-1.5s1.5,0.672,1.5,1.5
		v18.938C185.916,200.107,185.244,200.779,184.416,200.779z" style="fill:#CCCCDE;"></path>
	<g>
		<rect height="4.134" width="28.02" style="fill:#F0F0FF;" y="212.397" x="208.533"></rect>
		<path d="M236.553,218.031h-28.02c-0.828,0-1.5-0.672-1.5-1.5v-4.134c0-0.828,0.672-1.5,1.5-1.5h28.02
			c0.828,0,1.5,0.672,1.5,1.5v4.134C238.053,217.359,237.381,218.031,236.553,218.031z M210.033,215.031h25.02v-1.134h-25.02
			V215.031z" style="fill:#CCCCDE;"></path>
	</g>
	<path d="M215.193,200.116c-0.828,0-1.5-0.672-1.5-1.5v-4.592c0-0.828,0.672-1.5,1.5-1.5s1.5,0.672,1.5,1.5
		v4.592C216.693,199.444,216.021,200.116,215.193,200.116z" style="fill:#CCCCDE;"></path>
</g>
<g>
	<g>
		<path d="M57.244,175.419c0-8.323-7.243-15.07-16.177-15.07c-0.14,0-0.278,0.004-0.415,0.008
			c-2.821-4.414-7.993-7.375-13.909-7.375c-8.936,0-16.179,6.748-16.179,15.072c0,0.106,0.007,0.215,0.009,0.321
			c-4.885,2.594-8.183,7.487-8.183,13.103c0,8.324,7.243,15.071,16.177,15.071c0.508,0,1.01-0.022,1.506-0.065
			c2.968,3.35,7.458,5.481,12.482,5.481c8.259,0,15.066-5.766,16.05-13.211C53.742,186.228,57.244,181.206,57.244,175.419z" style="fill:#D7F7E4;"></path>
		<path d="M32.555,203.465c-5.016,0-9.745-1.973-13.096-5.438C9.31,198.521,0.89,190.892,0.89,181.478
			c0-5.667,3.113-10.945,8.184-13.979c0.313-8.882,8.119-16.018,17.669-16.018c5.885,0,11.439,2.805,14.702,7.371
			c9.574,0.188,17.299,7.548,17.299,16.566c0,5.93-3.343,11.349-8.776,14.317C48.516,197.617,41.175,203.465,32.555,203.465z
			 M20.696,194.924l0.5,0.564c2.802,3.163,6.942,4.977,11.359,4.977c7.405,0,13.666-5.119,14.562-11.907l0.105-0.796l0.72-0.354
			c4.812-2.367,7.801-6.961,7.801-11.989c0-7.482-6.584-13.57-14.677-13.57c-0.126,0-0.25,0.004-0.373,0.007l-0.849,0.024
			l-0.458-0.716c-2.634-4.122-7.479-6.683-12.645-6.683c-8.094,0-14.679,6.089-14.679,13.572l0.03,1.212l-0.817,0.435
			c-4.556,2.419-7.387,6.932-7.387,11.777c0,7.483,6.584,13.571,14.677,13.571c0.465,0,0.923-0.021,1.377-0.06L20.696,194.924z" style="fill:#CCCCDE;"></path>
	</g>
	<path d="M40.795,159.804c-0.138,0-0.276,0.008-0.414,0.012
		c-2.262-3.543-6.035-6.146-10.493-7.039c3.526,0.885,6.497,3.029,8.322,5.886c0.118-0.004,1.739,2.799,1.859,2.799
		c7.667,0,11.233,4.13,11.233,11.272c0,4.967-1.86,8.131-6.267,10.3c-0.845,6.388-6.688,11.337-13.773,11.337
		c-4.312,0-8.164-1.832-10.711-4.706c-0.426,0.037-0.856,0.06-1.292,0.06c-7.667,0-13.689-3.636-13.689-10.776
		c0-4.812,2.153-7.181,6.071-10.035c-0.104-0.619-0.539-6.063,0.913-7.517c3.45-3.451,5.013-6.414,8.1-7.946
		c-6.058,2.178-10.356,7.651-10.356,14.063c0,0.105,0.004,0.215,0.008,0.321c-4.887,2.594-8.185,7.485-8.185,13.104
		c0,8.322,7.243,15.069,16.178,15.069c0.508,0,1.011-0.022,1.506-0.065c2.968,3.351,7.458,5.482,12.482,5.482
		c8.257,0,15.064-5.767,16.05-13.213c5.136-2.523,8.637-7.547,8.637-13.332C56.973,166.552,49.729,159.804,40.795,159.804z" style="opacity:0.1;fill:#6E6E96;enable-background:new    ;"></path>
	<g>
		<path d="M17.771,183.571c0,0,8.377,1.64,8.377,9.839c0,0,2.256,13.925-6.462,23.778h20.131
			c-0.2-0.275-17.584-23.502,1.764-37.309C29.781,186.626,17.771,183.571,17.771,183.571z" style="fill:#EDE3DA;"></path>
		<path d="M39.817,218.688H16.356l2.207-2.494c8.153-9.215,6.126-22.412,6.105-22.544l-0.02-0.24
			c0-6.089-5.344-7.911-6.994-8.326l-0.253-0.059l0.658-2.926c0,0,0.105,0.02,0.295,0.066c0.67,0.146,3.002,0.595,6.243,0.595
			c4.07,0,10.192-0.726,16.24-4.183l1.616,2.522c-4.685,3.344-7.463,7.562-8.258,12.539c-1.735,10.866,6.47,22.169,6.82,22.646
			l1.758,2.389L39.817,218.688z M22.756,215.688h14.261c-2.623-4.256-7.252-13.336-5.785-22.521c0.518-3.245,1.745-6.203,3.665-8.85
			c-3.883,1.124-7.46,1.437-10.2,1.443c1.627,1.688,2.922,4.106,2.951,7.532C27.854,194.693,29.288,206.169,22.756,215.688z" style="fill:#CCCCDE;"></path>
	</g>
	<g>
		<path d="M23.076,167.128" style="fill:#D57E58;"></path>
	</g>
	<path d="M36.558,183.55c0,0-12.709,16.41-2.942,33.639h6.2
		C39.816,217.188,26.918,199.162,36.558,183.55z" style="opacity:0.11;fill:#6E6E96;enable-background:new    ;"></path>
</g>
<rect height="22.97" width="256" style="fill:#F0F0FF;" y="215.5"></rect>
<rect height="3" width="256" style="fill:#CCCCDE;" y="214"></rect>
<rect height="3" width="256" style="fill:#CCCCDE;" y="236.969"></rect>
<rect height="3" width="10.5" style="fill:#CCCCDE;" y="224.5"></rect>
<rect height="3" width="13" style="fill:#CCCCDE;" y="224.5" x="25.5"></rect>
<rect height="3" width="10.5" style="fill:#CCCCDE;" y="224.5" x="53.5"></rect>
<rect height="3" width="14.877" style="fill:#CCCCDE;" y="225" x="205.123"></rect>
<rect height="3" width="13" style="fill:#CCCCDE;" y="225" x="234"></rect>
<g style="display:none;" id="Layer_2">
	<g style="display:inline;">
		<path d="M137.58,30.971
			c-15.923-5.748-33.558-7.401-51.385-3.937C33.578,37.261-0.788,88.206,9.439,140.822" style="fill:none;stroke:#F59FB3;stroke-width:10;stroke-linecap:round;stroke-linejoin:round;"></path>
		<path d="M182.871,77.908
			c-18.545-32.675-56.474-51.436-95.392-43.872C53.457,40.648,27.67,65.63,18.41,96.692" style="fill:none;stroke:#FFFF75;stroke-width:10;stroke-linecap:round;stroke-linejoin:round;"></path>
		<path d="M161.523,62.501
			c-18.645-17.629-45.227-26.313-72.333-21.044c-35.735,6.945-61.546,36.032-65.964,70.26" style="fill:none;stroke:#AFEB75;stroke-width:10;stroke-linecap:round;stroke-linejoin:round;"></path>
		<path d="M175.344,97.582
			c-12.027-34.47-47.85-55.784-84.741-48.615c-19.632,3.816-35.963,14.998-46.68,30.121" style="fill:none;stroke:#75D5EB;stroke-width:10;stroke-linecap:round;stroke-linejoin:round;"></path>
	</g>
</g>
<g id="Layer_5">
</g>
<g id="Layer_3">
	<g>
		<rect height="35.552" width="21.334" style="fill:#FF8F8F;" y="106.568" x="173.123"></rect>
		<path d="M194.457,143.62h-21.334c-0.828,0-1.5-0.672-1.5-1.5v-35.552c0-0.829,0.672-1.5,1.5-1.5h21.334
			c0.828,0,1.5,0.671,1.5,1.5v35.552C195.957,142.948,195.285,143.62,194.457,143.62z M174.623,140.62h18.334v-32.552h-18.334
			V140.62z" style="fill:#6E6E96;"></path>
	</g>
	<g>
		<rect height="11.701" width="32.4" style="fill:#FF8F8F;" y="99.367" x="167.59"></rect>
		<path d="M199.99,112.568h-32.4c-0.828,0-1.5-0.671-1.5-1.5V99.367c0-0.829,0.672-1.5,1.5-1.5h32.4
			c0.828,0,1.5,0.671,1.5,1.5v11.701C201.49,111.896,200.818,112.568,199.99,112.568z M169.09,109.568h29.4v-8.701h-29.4V109.568z" style="fill:#6E6E96;"></path>
	</g>
	<g>
		<polygon points="67.636,155.34 136.379,117.4 205.123,155.34 205.123,248.552 67.636,248.552" style="fill:#F0F0FF;"></polygon>
		<path d="M206.623,250.052H66.136v-95.598l70.243-38.768l70.244,38.768V250.052z M69.136,247.052h134.487
			v-90.826l-67.244-37.112l-67.243,37.112V247.052z" style="fill:#6E6E96;"></path>
	</g>
	<g>
		<polygon points="61.27,149.465 61.27,160.923 67.824,160.78 136.379,123.708 205.123,160.297 
			212.48,160.297 212.48,149.465 136.379,109.126" style="fill:#BCC3E3;"></polygon>
		<path d="M61.27,162.423c-0.392,0-0.769-0.153-1.049-0.428c-0.289-0.282-0.451-0.669-0.451-1.072v-11.458
			c0-0.553,0.304-1.061,0.79-1.321l75.109-40.339c0.44-0.237,0.97-0.239,1.412-0.004l76.102,40.339
			c0.491,0.26,0.798,0.77,0.798,1.325v10.832c0,0.828-0.672,1.5-1.5,1.5h-7.357c-0.246,0-0.488-0.061-0.705-0.176l-68.033-36.211
			L68.538,162.1c-0.209,0.113-0.443,0.175-0.681,0.181l-6.554,0.143C61.292,162.423,61.281,162.423,61.27,162.423z M62.77,150.362
			v9.027l4.659-0.102l68.236-36.899c0.443-0.239,0.976-0.241,1.419-0.005l68.413,36.413h5.483v-8.43l-74.597-39.541L62.77,150.362z" style="fill:#6E6E96;"></path>
	</g>
	<g>
		<rect height="16.138" width="137.487" style="fill:#DBADAD;" y="232.415" x="67.636"></rect>
		<path d="M206.623,250.053H66.136v-19.138h140.487V250.053z M69.136,247.053h134.487v-13.138H69.136V247.053
			z" style="fill:#6E6E96;"></path>
	</g>
	<rect height="6.487" width="137.104" style="opacity:0.15;fill:#6E6E96;enable-background:new    ;" y="242.063" x="68.019"></rect>
	<g>
		<path d="M235.727,248.552c0.018-0.227,0.033-0.449,0.033-0.681c0-5.323-4.312-9.636-9.635-9.636
			c-0.715,0-1.41,0.084-2.08,0.231c-1.785-6.243-7.523-10.817-14.342-10.817c-4.967,0-9.354,2.436-12.068,6.168
			c-2.158-1.567-4.807-2.502-7.678-2.502c-6.311,0-11.574,4.461-12.818,10.4c-1.598-1.431-3.703-2.307-6.018-2.307
			c-4.998,0-9.049,4.051-9.049,9.047c0,0.032,0.006,0.062,0.006,0.094L235.727,248.552L235.727,248.552z" style="fill:#ADDBB3;"></path>
		<path d="M235.727,250.052L235.727,250.052l-73.648-0.002c-0.828,0-1.5-0.672-1.5-1.5
			c-0.006-5.909,4.727-10.641,10.543-10.641c1.826,0,3.604,0.475,5.172,1.363c2.11-5.591,7.545-9.457,13.664-9.457
			c2.607,0,5.124,0.688,7.356,2c3.106-3.571,7.641-5.666,12.39-5.666c6.842,0,12.979,4.312,15.365,10.639
			c6.579-0.655,12.191,4.593,12.191,11.083c0,0.271-0.018,0.531-0.038,0.797C237.161,249.449,236.51,250.052,235.727,250.052z
			 M163.704,247.05l70.515,0.002c-0.469-4.662-4.922-8.201-9.852-7.12c-0.777,0.172-1.547-0.292-1.765-1.053
			c-1.638-5.729-6.942-9.729-12.899-9.729c-4.27,0-8.327,2.075-10.855,5.551c-0.487,0.67-1.425,0.816-2.095,0.331
			c-1.995-1.449-4.346-2.216-6.796-2.216c-5.459,0-10.232,3.872-11.351,9.208c-0.109,0.524-0.491,0.95-1,1.117
			c-0.512,0.168-1.07,0.049-1.469-0.308c-1.386-1.24-3.167-1.924-5.017-1.924C167.439,240.909,164.364,243.558,163.704,247.05z" style="fill:#6E6E96;"></path>
	</g>
	<polygon points="205.123,167.812 136.379,131.356 67.636,167.812 
		67.824,160.78 136.379,123.708 205.123,160.297" style="opacity:0.15;fill:#6E6E96;enable-background:new    ;"></polygon>
	<g>
		<g>
			<rect height="76.168" width="45.228" style="fill:#F5C2C2;" y="172.385" x="79.72"></rect>
			<path d="M124.948,250.053H79.72c-0.829,0-1.5-0.672-1.5-1.5v-76.168c0-0.828,0.671-1.5,1.5-1.5h45.228
				c0.829,0,1.5,0.672,1.5,1.5v76.168C126.448,249.381,125.777,250.053,124.948,250.053z M81.22,247.053h42.228v-73.168H81.22
				V247.053z" style="fill:#6E6E96;"></path>
		</g>
		<g>
			<path d="M86.133,179.285v28.353h32.064v-28.353H86.133z M118.197,214.388H86.133v28.352h32.064
				L118.197,214.388L118.197,214.388z" style="fill:#E08787;"></path>
			<path d="M118.197,244.239H86.133c-0.829,0-1.5-0.672-1.5-1.5v-28.352c0-0.828,0.671-1.5,1.5-1.5h32.064
				c0.829,0,1.5,0.672,1.5,1.5l0,28.352c0,0.397-0.158,0.779-0.439,1.061S118.595,244.239,118.197,244.239z M87.633,241.239h29.064
				v-25.352H87.633V241.239z M118.197,209.138H86.133c-0.829,0-1.5-0.672-1.5-1.5v-28.353c0-0.828,0.671-1.5,1.5-1.5h32.064
				c0.829,0,1.5,0.672,1.5,1.5v28.353C119.697,208.466,119.026,209.138,118.197,209.138z M87.633,206.138h29.064v-25.353H87.633
				V206.138z" style="fill:#6E6E96;"></path>
		</g>
		<g>
			<rect height="8.102" width="52.654" style="fill:#F0F0FF;" y="164.21" x="75.895"></rect>
			<path d="M128.549,173.812H75.895c-0.829,0-1.5-0.672-1.5-1.5v-8.102c0-0.828,0.671-1.5,1.5-1.5h52.654
				c0.828,0,1.5,0.672,1.5,1.5v8.102C130.049,173.14,129.377,173.812,128.549,173.812z M77.395,170.812h49.654v-5.102H77.395
				V170.812z" style="fill:#6E6E96;"></path>
		</g>
		<rect height="3.487" width="52.654" style="opacity:0.15;fill:#6E6E96;enable-background:new    ;" y="168.822" x="75.895"></rect>
		<rect height="4.049" width="32.064" style="opacity:0.25;fill:#6E6E96;enable-background:new    ;" y="179.285" x="86.133"></rect>
		<rect height="4.387" width="32.064" style="opacity:0.25;fill:#6E6E96;enable-background:new    ;" y="214.388" x="86.133"></rect>
		<rect height="4.05" width="45.228" style="opacity:0.15;fill:#6E6E96;enable-background:new    ;" y="172.534" x="79.72"></rect>
	</g>
	<g>
		<g>
			<rect height="43.864" width="52.25" style="fill:#F0F0FF;" y="165.279" x="140.279"></rect>
			<path d="M192.529,210.644h-52.25c-0.828,0-1.5-0.672-1.5-1.5v-43.864c0-0.828,0.672-1.5,1.5-1.5h52.25
				c0.828,0,1.5,0.672,1.5,1.5v43.864C194.029,209.972,193.357,210.644,192.529,210.644z M141.779,207.644h49.25v-40.864h-49.25
				V207.644z" style="fill:#6E6E96;"></path>
		</g>
		<g>
			<rect height="8.075" width="60.936" style="fill:#F0F0FF;" y="209.511" x="135.75"></rect>
			<path d="M196.686,219.086H135.75c-0.828,0-1.5-0.672-1.5-1.5v-8.075c0-0.828,0.672-1.5,1.5-1.5h60.936
				c0.828,0,1.5,0.672,1.5,1.5v8.075C198.186,218.414,197.514,219.086,196.686,219.086z M137.25,216.086h57.936v-5.075H137.25
				V216.086z" style="fill:#6E6E96;"></path>
		</g>
		<rect height="8.999" width="60.936" style="opacity:0.15;fill:#6E6E96;enable-background:new    ;" y="213.698" x="135.75"></rect>
		<g>
			<g>
				<rect height="33.965" width="41.605" style="fill:#96D3FF;" y="170.511" x="145.439"></rect>
				<path d="M187.045,205.976h-41.605c-0.828,0-1.5-0.672-1.5-1.5v-33.965c0-0.828,0.672-1.5,1.5-1.5h41.605
					c0.828,0,1.5,0.672,1.5,1.5v33.965C188.545,205.304,187.873,205.976,187.045,205.976z M146.939,202.976h38.605v-30.965h-38.605
					V202.976z" style="fill:#6E6E96;"></path>
			</g>
			<rect height="4.562" width="41.605" style="opacity:0.15;fill:#6E6E96;enable-background:new    ;" y="170.511" x="145.439"></rect>
			<polygon points="186.279,188.147 169.654,171.522 
				153.971,171.522 184.102,201.653 186.279,201.653" style="opacity:0.42;fill:#FFFFFF;enable-background:new    ;"></polygon>
			<polygon points="175.541,201.653 146.146,172.26 146.146,176.849 
				170.951,201.653" style="opacity:0.31;fill:#FFFFFF;enable-background:new    ;"></polygon>
			<path d="M187.047,182.985h-41.607c-0.828,0-1.5-0.672-1.5-1.5s0.672-1.5,1.5-1.5h41.607
				c0.828,0,1.5,0.672,1.5,1.5S187.875,182.985,187.047,182.985z" style="fill:#6E6E96;"></path>
			<path d="M187.047,193.459h-41.607c-0.828,0-1.5-0.672-1.5-1.5s0.672-1.5,1.5-1.5h41.607
				c0.828,0,1.5,0.672,1.5,1.5S187.875,193.459,187.047,193.459z" style="fill:#6E6E96;"></path>
			<path d="M166.385,204.214c-0.828,0-1.5-0.672-1.5-1.5v-32.203c0-0.828,0.672-1.5,1.5-1.5
				s1.5,0.672,1.5,1.5v32.203C167.885,203.542,167.213,204.214,166.385,204.214z" style="fill:#6E6E96;"></path>
		</g>
	</g>
	<polygon points="212.48,160.297 136.426,119.656 61.27,160.923 
		67.824,160.78 135.053,125.035 205.123,160.297" style="opacity:0.15;fill:#6E6E96;enable-background:new    ;"></polygon>
	<rect height="3" width="7.068" style="fill:#6E6E96;" y="128.507" x="187.389"></rect>
	<rect height="3" width="10.217" style="fill:#6E6E96;" y="117.368" x="173.123"></rect>
	<rect height="3.375" width="21.334" style="opacity:0.2;fill:#6E6E96;enable-background:new    ;" y="112.118" x="173.123"></rect>
	<rect height="4.35" width="32.4" style="opacity:0.15;fill:#6E6E96;enable-background:new    ;" y="106.719" x="167.59"></rect>
	<rect height="7.353" width="7.65" style="opacity:0.15;fill:#6E6E96;enable-background:new    ;" y="99.367" x="167.59"></rect>
	<polygon points="173.123,128.604 183.791,133.452 183.791,115.494 
		173.123,115.494" style="opacity:0.15;fill:#6E6E96;enable-background:new    ;"></polygon>
	<g>
		<path d="M38.841,241.719c1.243-5.938,6.508-10.401,12.816-10.401c2.872,0,5.52,0.936,7.679,2.502
			c2.713-3.731,7.102-6.168,12.069-6.168c6.817,0,12.555,4.574,14.342,10.818c0.669-0.147,1.363-0.231,2.079-0.231
			c5.321,0,9.634,4.312,9.634,9.636c0,0.229-0.018,0.454-0.033,0.681h-60.33" style="fill:#ADDBB3;"></path>
		<path d="M97.427,250.055h-60.33c-0.829,0-1.5-0.672-1.5-1.5s0.671-1.5,1.5-1.5h58.822
			c-0.468-4.662-4.932-8.202-9.849-7.12c-0.772,0.166-1.546-0.291-1.765-1.052c-1.64-5.729-6.945-9.731-12.9-9.731
			c-4.271,0-8.329,2.075-10.855,5.55c-0.487,0.67-1.424,0.818-2.094,0.332c-1.999-1.449-4.349-2.216-6.798-2.216
			c-5.458,0-10.231,3.873-11.348,9.209c-0.169,0.811-0.967,1.336-1.775,1.16c-0.811-0.169-1.331-0.964-1.161-1.775
			c1.406-6.718,7.414-11.594,14.285-11.594c2.606,0,5.123,0.688,7.356,2c3.106-3.571,7.641-5.666,12.391-5.666
			c6.84,0,12.978,4.313,15.365,10.64c0.354-0.035,0.707-0.053,1.056-0.053c6.139,0,11.134,4.995,11.134,11.136
			c0,0.23-0.015,0.459-0.03,0.688C98.875,249.349,98.215,250.055,97.427,250.055z" style="fill:#6E6E96;"></path>
	</g>
	<g>
		<path d="M200.936,230.519c0,0-4.787,2.978-4.787,8.16" style="fill:#B2D6BF;"></path>
		<path d="M196.148,240.179c-0.828,0-1.5-0.672-1.5-1.5c0-5.947,5.271-9.294,5.495-9.434
			c0.702-0.438,1.628-0.223,2.065,0.481c0.438,0.702,0.223,1.625-0.478,2.063c-0.084,0.054-4.083,2.652-4.083,6.889
			C197.648,239.507,196.977,240.179,196.148,240.179z" style="fill:#6E6E96;"></path>
	</g>
	<g>
		<path d="M85.747,238.469c0,0-2.696,0.438-3.705,3.702" style="fill:#B2D6BF;"></path>
		<path d="M82.042,243.671c-0.146,0-0.296-0.021-0.443-0.066c-0.792-0.245-1.235-1.085-0.99-1.876
			c1.269-4.106,4.75-4.717,4.898-4.74c0.817-0.135,1.588,0.423,1.721,1.24c0.132,0.811-0.413,1.575-1.22,1.718
			c-0.11,0.022-1.835,0.41-2.533,2.667C83.276,243.258,82.683,243.671,82.042,243.671z" style="fill:#6E6E96;"></path>
	</g>
	<g>
		<path d="M59.335,233.817c-0.001,0,3.641,1.666,3.641,5.039" style="fill:#B2D6BF;"></path>
		<path d="M62.976,240.356c-0.829,0-1.5-0.672-1.5-1.5c0-2.354-2.748-3.667-2.776-3.68
			c-0.75-0.352-1.074-1.244-0.722-1.995c0.351-0.75,1.242-1.075,1.995-0.722c0.461,0.216,4.503,2.229,4.503,6.396
			C64.476,239.685,63.805,240.356,62.976,240.356z" style="fill:#6E6E96;"></path>
	</g>
</g>
<g id="Layer_6">
</g>
<g id="Layer_7">
</g>
</svg>
